<svg id="visual" viewBox="0 0 900 600" width="900" height="600" xmlns="http://www.w3.org/2000/svg" xmlns:xlink="http://www.w3.org/1999/xlink" version="1.1"><rect x="0" y="0" width="900" height="600" fill="#202731"></rect><path d="M0 353L21.5 359.3C43 365.7 86 378.3 128.8 384.8C171.7 391.3 214.3 391.7 257.2 390.8C300 390 343 388 385.8 391.8C428.7 395.7 471.3 405.3 514.2 400.7C557 396 600 377 642.8 377.2C685.7 377.3 728.3 396.7 771.2 408C814 419.3 857 422.7 878.5 424.3L900 426L900 601L878.5 601C857 601 814 601 771.2 601C728.3 601 685.7 601 642.8 601C600 601 557 601 514.2 601C471.3 601 428.7 601 385.8 601C343 601 300 601 257.2 601C214.3 601 171.7 601 128.8 601C86 601 43 601 21.5 601L0 601Z" fill="#fa7268"></path><path d="M0 435L21.5 434.2C43 433.3 86 431.7 128.8 429.5C171.7 427.3 214.3 424.7 257.2 426.5C300 428.3 343 434.7 385.8 431.8C428.7 429 471.3 417 514.2 414.7C557 412.3 600 419.7 642.8 430.7C685.7 441.7 728.3 456.3 771.2 456.3C814 456.3 857 441.7 878.5 434.3L900 427L900 601L878.5 601C857 601 814 601 771.2 601C728.3 601 685.7 601 642.8 601C600 601 557 601 514.2 601C471.3 601 428.7 601 385.8 601C343 601 300 601 257.2 601C214.3 601 171.7 601 128.8 601C86 601 43 601 21.5 601L0 601Z" fill="#ef5f67"></path><path d="M0 458L21.5 460.3C43 462.7 86 467.3 128.8 467C171.7 466.7 214.3 461.3 257.2 458.5C300 455.7 343 455.3 385.8 453C428.7 450.7 471.3 446.3 514.2 447.8C557 449.3 600 456.7 642.8 461.3C685.7 466 728.3 468 771.2 466.3C814 464.7 857 459.3 878.5 456.7L900 454L900 601L878.5 601C857 601 814 601 771.2 601C728.3 601 685.7 601 642.8 601C600 601 557 601 514.2 601C471.3 601 428.7 601 385.8 601C343 601 300 601 257.2 601C214.3 601 171.7 601 128.8 601C86 601 43 601 21.5 601L0 601Z" fill="#e34c67"></path><path d="M0 510L21.5 506.8C43 503.7 86 497.3 128.8 495.7C171.7 494 214.3 497 257.2 503.5C300 510 343 520 385.8 519.8C428.7 519.7 471.3 509.3 514.2 503.7C557 498 600 497 642.8 499.5C685.7 502 728.3 508 771.2 507.3C814 506.7 857 499.3 878.5 495.7L900 492L900 601L878.5 601C857 601 814 601 771.2 601C728.3 601 685.7 601 642.8 601C600 601 557 601 514.2 601C471.3 601 428.7 601 385.8 601C343 601 300 601 257.2 601C214.3 601 171.7 601 128.8 601C86 601 43 601 21.5 601L0 601Z" fill="#d53867"></path><path d="M0 566L21.5 563.2C43 560.3 86 554.7 128.8 549.8C171.7 545 214.3 541 257.2 544.8C300 548.7 343 560.3 385.8 565.5C428.7 570.7 471.3 569.3 514.2 569.2C557 569 600 570 642.8 567.5C685.7 565 728.3 559 771.2 553.7C814 548.3 857 543.7 878.5 541.3L900 539L900 601L878.5 601C857 601 814 601 771.2 601C728.3 601 685.7 601 642.8 601C600 601 557 601 514.2 601C471.3 601 428.7 601 385.8 601C343 601 300 601 257.2 601C214.3 601 171.7 601 128.8 601C86 601 43 601 21.5 601L0 601Z" fill="#c62368"></path></svg>