<svg id="visual" viewBox="0 0 900 600" width="900" height="600" xmlns="http://www.w3.org/2000/svg" xmlns:xlink="http://www.w3.org/1999/xlink" version="1.1"><path d="M0 354L21.5 365.7C43 377.3 86 400.7 128.8 412.8C171.7 425 214.3 426 257.2 415.2C300 404.3 343 381.7 385.8 380.5C428.7 379.3 471.3 399.7 514.2 404.2C557 408.7 600 397.3 642.8 401.3C685.7 405.3 728.3 424.7 771.2 419C814 413.3 857 382.7 878.5 367.3L900 352L900 601L878.5 601C857 601 814 601 771.2 601C728.3 601 685.7 601 642.8 601C600 601 557 601 514.2 601C471.3 601 428.7 601 385.8 601C343 601 300 601 257.2 601C214.3 601 171.7 601 128.8 601C86 601 43 601 21.5 601L0 601Z" fill="#a1325f"></path><path d="M0 397L21.5 410.5C43 424 86 451 128.8 461C171.7 471 214.3 464 257.2 462.8C300 461.7 343 466.3 385.8 457.2C428.7 448 471.3 425 514.2 416.5C557 408 600 414 642.8 417.8C685.7 421.7 728.3 423.3 771.2 433C814 442.7 857 460.3 878.5 469.2L900 478L900 601L878.5 601C857 601 814 601 771.2 601C728.3 601 685.7 601 642.8 601C600 601 557 601 514.2 601C471.3 601 428.7 601 385.8 601C343 601 300 601 257.2 601C214.3 601 171.7 601 128.8 601C86 601 43 601 21.5 601L0 601Z" fill="#b82d63"></path><path d="M0 458L21.5 458.7C43 459.3 86 460.7 128.8 459.3C171.7 458 214.3 454 257.2 456.8C300 459.7 343 469.3 385.8 478.8C428.7 488.3 471.3 497.7 514.2 492.5C557 487.3 600 467.7 642.8 466.3C685.7 465 728.3 482 771.2 490.5C814 499 857 499 878.5 499L900 499L900 601L878.5 601C857 601 814 601 771.2 601C728.3 601 685.7 601 642.8 601C600 601 557 601 514.2 601C471.3 601 428.7 601 385.8 601C343 601 300 601 257.2 601C214.3 601 171.7 601 128.8 601C86 601 43 601 21.5 601L0 601Z" fill="#d02666"></path><path d="M0 532L21.5 526.7C43 521.3 86 510.7 128.8 509.3C171.7 508 214.3 516 257.2 522.7C300 529.3 343 534.7 385.8 529.5C428.7 524.3 471.3 508.7 514.2 502.8C557 497 600 501 642.8 508C685.7 515 728.3 525 771.2 527.8C814 530.7 857 526.3 878.5 524.2L900 522L900 601L878.5 601C857 601 814 601 771.2 601C728.3 601 685.7 601 642.8 601C600 601 557 601 514.2 601C471.3 601 428.7 601 385.8 601C343 601 300 601 257.2 601C214.3 601 171.7 601 128.8 601C86 601 43 601 21.5 601L0 601Z" fill="#e81a67"></path><path d="M0 549L21.5 546C43 543 86 537 128.8 535.8C171.7 534.7 214.3 538.3 257.2 545.2C300 552 343 562 385.8 563.3C428.7 564.7 471.3 557.3 514.2 555.8C557 554.3 600 558.7 642.8 560.8C685.7 563 728.3 563 771.2 560.7C814 558.3 857 553.7 878.5 551.3L900 549L900 601L878.5 601C857 601 814 601 771.2 601C728.3 601 685.7 601 642.8 601C600 601 557 601 514.2 601C471.3 601 428.7 601 385.8 601C343 601 300 601 257.2 601C214.3 601 171.7 601 128.8 601C86 601 43 601 21.5 601L0 601Z" fill="#ff0066"></path></svg>